<svg xmlns="http://www.w3.org/2000/svg" xmlns:xlink="http://www.w3.org/1999/xlink" width="500" zoomAndPan="magnify" viewBox="0 0 375 374.999991" height="500" preserveAspectRatio="xMidYMid meet" version="1.0"><defs><g/></defs><path stroke-linecap="butt" transform="matrix(0.75, 0, 0, 0.75, 91.066859, 178.499988)" fill="none" stroke-linejoin="miter" d="M -0.000603027 6.000016 L 148.692115 6.000016 " stroke="#000000" stroke-width="12" stroke-opacity="1" stroke-miterlimit="4"/><g fill="#000000" fill-opacity="1"><g transform="translate(91.066859, 169.460715)"><g><path d="M 9.875 0.328125 C 8.144531 0.328125 6.59375 -0.0351562 5.21875 -0.765625 C 3.84375 -1.503906 2.757812 -2.519531 1.96875 -3.8125 C 1.1875 -5.101562 0.796875 -6.554688 0.796875 -8.171875 C 0.796875 -9.785156 1.1875 -11.238281 1.96875 -12.53125 C 2.757812 -13.820312 3.84375 -14.832031 5.21875 -15.5625 C 6.59375 -16.300781 8.144531 -16.671875 9.875 -16.671875 C 11.601562 -16.671875 13.15625 -16.300781 14.53125 -15.5625 C 15.90625 -14.832031 16.984375 -13.820312 17.765625 -12.53125 C 18.554688 -11.238281 18.953125 -9.785156 18.953125 -8.171875 C 18.953125 -6.554688 18.554688 -5.101562 17.765625 -3.8125 C 16.984375 -2.519531 15.90625 -1.503906 14.53125 -0.765625 C 13.15625 -0.0351562 11.601562 0.328125 9.875 0.328125 Z M 9.875 -3.5 C 10.695312 -3.5 11.441406 -3.691406 12.109375 -4.078125 C 12.785156 -4.472656 13.316406 -5.023438 13.703125 -5.734375 C 14.085938 -6.441406 14.28125 -7.253906 14.28125 -8.171875 C 14.28125 -9.085938 14.085938 -9.898438 13.703125 -10.609375 C 13.316406 -11.316406 12.785156 -11.863281 12.109375 -12.25 C 11.441406 -12.644531 10.695312 -12.84375 9.875 -12.84375 C 9.050781 -12.84375 8.300781 -12.644531 7.625 -12.25 C 6.957031 -11.863281 6.429688 -11.316406 6.046875 -10.609375 C 5.660156 -9.898438 5.46875 -9.085938 5.46875 -8.171875 C 5.46875 -7.253906 5.660156 -6.441406 6.046875 -5.734375 C 6.429688 -5.023438 6.957031 -4.472656 7.625 -4.078125 C 8.300781 -3.691406 9.050781 -3.5 9.875 -3.5 Z M 9.875 -3.5 "/></g></g></g><g fill="#000000" fill-opacity="1"><g transform="translate(112.847014, 169.460715)"><g><path d="M 9.109375 -16.34375 C 10.585938 -16.34375 11.867188 -16.097656 12.953125 -15.609375 C 14.046875 -15.117188 14.882812 -14.414062 15.46875 -13.5 C 16.0625 -12.59375 16.359375 -11.523438 16.359375 -10.296875 C 16.359375 -9.066406 16.0625 -8 15.46875 -7.09375 C 14.882812 -6.195312 14.046875 -5.5 12.953125 -5 C 11.867188 -4.507812 10.585938 -4.265625 9.109375 -4.265625 L 6.25 -4.265625 L 6.25 0 L 1.640625 0 L 1.640625 -16.34375 Z M 8.828125 -7.90625 C 9.773438 -7.90625 10.488281 -8.113281 10.96875 -8.53125 C 11.445312 -8.945312 11.6875 -9.535156 11.6875 -10.296875 C 11.6875 -11.054688 11.445312 -11.644531 10.96875 -12.0625 C 10.488281 -12.488281 9.773438 -12.703125 8.828125 -12.703125 L 6.25 -12.703125 L 6.25 -7.90625 Z M 8.828125 -7.90625 "/></g></g></g><g fill="#000000" fill-opacity="1"><g transform="translate(132.082701, 169.460715)"><g><path d="M 14.75 -3.578125 L 14.75 0 L 1.640625 0 L 1.640625 -16.34375 L 14.453125 -16.34375 L 14.453125 -12.765625 L 6.203125 -12.765625 L 6.203125 -10.015625 L 13.46875 -10.015625 L 13.46875 -6.5625 L 6.203125 -6.5625 L 6.203125 -3.578125 Z M 14.75 -3.578125 "/></g></g></g><g fill="#000000" fill-opacity="1"><g transform="translate(149.801041, 169.460715)"><g><path d="M 17.1875 -16.34375 L 17.1875 0 L 13.375 0 L 6.15625 -8.703125 L 6.15625 0 L 1.640625 0 L 1.640625 -16.34375 L 5.4375 -16.34375 L 12.65625 -7.640625 L 12.65625 -16.34375 Z M 17.1875 -16.34375 "/></g></g></g><g fill="#000000" fill-opacity="1"><g transform="translate(170.647448, 169.460715)"><g><path d="M 17.1875 -16.34375 L 17.1875 0 L 12.5625 0 L 12.5625 -6.375 L 6.25 -6.375 L 6.25 0 L 1.640625 0 L 1.640625 -16.34375 L 6.25 -16.34375 L 6.25 -10.203125 L 12.5625 -10.203125 L 12.5625 -16.34375 Z M 17.1875 -16.34375 "/></g></g></g><g fill="#000000" fill-opacity="1"><g transform="translate(191.493861, 169.460715)"><g><path d="M 1.640625 -16.34375 L 6.25 -16.34375 L 6.25 0 L 1.640625 0 Z M 1.640625 -16.34375 "/></g></g></g><g fill="#000000" fill-opacity="1"><g transform="translate(201.438708, 169.460715)"><g><path d="M 8.78125 -4.34375 L 6.25 -4.34375 L 6.25 0 L 1.640625 0 L 1.640625 -16.34375 L 9.109375 -16.34375 C 10.585938 -16.34375 11.867188 -16.097656 12.953125 -15.609375 C 14.046875 -15.117188 14.882812 -14.414062 15.46875 -13.5 C 16.0625 -12.59375 16.359375 -11.523438 16.359375 -10.296875 C 16.359375 -9.109375 16.082031 -8.070312 15.53125 -7.1875 C 14.976562 -6.3125 14.191406 -5.628906 13.171875 -5.140625 L 16.6875 0 L 11.734375 0 Z M 11.6875 -10.296875 C 11.6875 -11.054688 11.445312 -11.644531 10.96875 -12.0625 C 10.488281 -12.488281 9.773438 -12.703125 8.828125 -12.703125 L 6.25 -12.703125 L 6.25 -7.90625 L 8.828125 -7.90625 C 9.773438 -7.90625 10.488281 -8.113281 10.96875 -8.53125 C 11.445312 -8.945312 11.6875 -9.535156 11.6875 -10.296875 Z M 11.6875 -10.296875 "/></g></g></g><g fill="#000000" fill-opacity="1"><g transform="translate(220.74442, 169.460715)"><g><path d="M 14.75 -3.578125 L 14.75 0 L 1.640625 0 L 1.640625 -16.34375 L 14.453125 -16.34375 L 14.453125 -12.765625 L 6.203125 -12.765625 L 6.203125 -10.015625 L 13.46875 -10.015625 L 13.46875 -6.5625 L 6.203125 -6.5625 L 6.203125 -3.578125 Z M 14.75 -3.578125 "/></g></g></g><g fill="#000000" fill-opacity="1"><g transform="translate(238.462757, 169.460715)"><g><path d="M 17.1875 -16.34375 L 17.1875 0 L 12.5625 0 L 12.5625 -6.375 L 6.25 -6.375 L 6.25 0 L 1.640625 0 L 1.640625 -16.34375 L 6.25 -16.34375 L 6.25 -10.203125 L 12.5625 -10.203125 L 12.5625 -16.34375 Z M 17.1875 -16.34375 "/></g></g></g><g fill="#000000" fill-opacity="1"><g transform="translate(259.309165, 169.460715)"><g><path d="M 9.171875 0.328125 C 6.742188 0.328125 4.859375 -0.332031 3.515625 -1.65625 C 2.171875 -2.976562 1.5 -4.851562 1.5 -7.28125 L 1.5 -16.34375 L 6.109375 -16.34375 L 6.109375 -7.421875 C 6.109375 -4.804688 7.144531 -3.5 9.21875 -3.5 C 11.269531 -3.5 12.296875 -4.804688 12.296875 -7.421875 L 12.296875 -16.34375 L 16.859375 -16.34375 L 16.859375 -7.28125 C 16.859375 -4.851562 16.179688 -2.976562 14.828125 -1.65625 C 13.484375 -0.332031 11.597656 0.328125 9.171875 0.328125 Z M 9.171875 0.328125 "/></g></g></g><g fill="#000000" fill-opacity="1"><g transform="translate(279.688699, 169.460715)"><g><path d="M 14.1875 -8.515625 C 15.125 -8.191406 15.859375 -7.679688 16.390625 -6.984375 C 16.921875 -6.296875 17.1875 -5.460938 17.1875 -4.484375 C 17.1875 -3.046875 16.609375 -1.9375 15.453125 -1.15625 C 14.296875 -0.382812 12.628906 0 10.453125 0 L 1.640625 0 L 1.640625 -16.34375 L 9.984375 -16.34375 C 12.078125 -16.34375 13.664062 -15.957031 14.75 -15.1875 C 15.84375 -14.414062 16.390625 -13.375 16.390625 -12.0625 C 16.390625 -11.289062 16.195312 -10.597656 15.8125 -9.984375 C 15.4375 -9.367188 14.894531 -8.878906 14.1875 -8.515625 Z M 6.203125 -13 L 6.203125 -9.84375 L 9.390625 -9.84375 C 10.941406 -9.84375 11.71875 -10.375 11.71875 -11.4375 C 11.71875 -12.476562 10.941406 -13 9.390625 -13 Z M 10.078125 -3.34375 C 11.703125 -3.34375 12.515625 -3.894531 12.515625 -5 C 12.515625 -6.101562 11.703125 -6.65625 10.078125 -6.65625 L 6.203125 -6.65625 L 6.203125 -3.34375 Z M 10.078125 -3.34375 "/></g></g></g></svg>