<svg xmlns="http://www.w3.org/2000/svg" xmlns:xlink="http://www.w3.org/1999/xlink" width="100" zoomAndPan="magnify" viewBox="0 0 75 30.000001" height="40" preserveAspectRatio="xMidYMid meet" version="1.0"><defs><g/><clipPath id="37bd9112ed"><path d="M 1.210938 19 L 38 19 L 38 23 L 1.210938 23 Z M 1.210938 19 " clip-rule="nonzero"/></clipPath><clipPath id="fc1a660aa9"><path d="M 1.210938 12 L 8 12 L 8 18 L 1.210938 18 Z M 1.210938 12 " clip-rule="nonzero"/></clipPath></defs><g clip-path="url(#37bd9112ed)"><path stroke-linecap="butt" transform="matrix(0.725806, 0, 0, 0.725806, 1.209676, 19.443272)" fill="none" stroke-linejoin="miter" d="M 0.00173778 1.999512 L 47.583509 1.999512 " stroke="#000000" stroke-width="4" stroke-opacity="1" stroke-miterlimit="4"/></g><g clip-path="url(#fc1a660aa9)"><g fill="#000000" fill-opacity="1"><g transform="translate(1.209676, 17.611454)"><g><path d="M 3.0625 0.09375 C 2.519531 0.09375 2.035156 -0.015625 1.609375 -0.234375 C 1.191406 -0.460938 0.859375 -0.773438 0.609375 -1.171875 C 0.367188 -1.578125 0.25 -2.03125 0.25 -2.53125 C 0.25 -3.03125 0.367188 -3.476562 0.609375 -3.875 C 0.859375 -4.28125 1.191406 -4.597656 1.609375 -4.828125 C 2.035156 -5.054688 2.519531 -5.171875 3.0625 -5.171875 C 3.59375 -5.171875 4.070312 -5.054688 4.5 -4.828125 C 4.925781 -4.597656 5.257812 -4.28125 5.5 -3.875 C 5.75 -3.476562 5.875 -3.03125 5.875 -2.53125 C 5.875 -2.03125 5.75 -1.578125 5.5 -1.171875 C 5.257812 -0.773438 4.925781 -0.460938 4.5 -0.234375 C 4.070312 -0.015625 3.59375 0.09375 3.0625 0.09375 Z M 3.0625 -1.078125 C 3.3125 -1.078125 3.539062 -1.140625 3.75 -1.265625 C 3.957031 -1.390625 4.117188 -1.5625 4.234375 -1.78125 C 4.359375 -2 4.421875 -2.25 4.421875 -2.53125 C 4.421875 -2.8125 4.359375 -3.0625 4.234375 -3.28125 C 4.117188 -3.5 3.957031 -3.671875 3.75 -3.796875 C 3.539062 -3.921875 3.3125 -3.984375 3.0625 -3.984375 C 2.800781 -3.984375 2.566406 -3.921875 2.359375 -3.796875 C 2.148438 -3.671875 1.984375 -3.5 1.859375 -3.28125 C 1.742188 -3.0625 1.6875 -2.8125 1.6875 -2.53125 C 1.6875 -2.25 1.742188 -2 1.859375 -1.78125 C 1.984375 -1.5625 2.148438 -1.390625 2.359375 -1.265625 C 2.566406 -1.140625 2.800781 -1.078125 3.0625 -1.078125 Z M 3.0625 -1.078125 "/></g></g></g></g><g fill="#000000" fill-opacity="1"><g transform="translate(7.954583, 17.611454)"><g><path d="M 2.828125 -5.0625 C 3.285156 -5.0625 3.679688 -4.984375 4.015625 -4.828125 C 4.347656 -4.679688 4.609375 -4.46875 4.796875 -4.1875 C 4.984375 -3.90625 5.078125 -3.570312 5.078125 -3.1875 C 5.078125 -2.8125 4.984375 -2.484375 4.796875 -2.203125 C 4.609375 -1.921875 4.347656 -1.703125 4.015625 -1.546875 C 3.679688 -1.398438 3.285156 -1.328125 2.828125 -1.328125 L 1.9375 -1.328125 L 1.9375 0 L 0.5 0 L 0.5 -5.0625 Z M 2.734375 -2.453125 C 3.023438 -2.453125 3.242188 -2.515625 3.390625 -2.640625 C 3.546875 -2.765625 3.625 -2.945312 3.625 -3.1875 C 3.625 -3.425781 3.546875 -3.609375 3.390625 -3.734375 C 3.242188 -3.867188 3.023438 -3.9375 2.734375 -3.9375 L 1.9375 -3.9375 L 1.9375 -2.453125 Z M 2.734375 -2.453125 "/></g></g></g><g fill="#000000" fill-opacity="1"><g transform="translate(13.911516, 17.611454)"><g><path d="M 4.578125 -1.109375 L 4.578125 0 L 0.5 0 L 0.5 -5.0625 L 4.484375 -5.0625 L 4.484375 -3.953125 L 1.921875 -3.953125 L 1.921875 -3.109375 L 4.171875 -3.109375 L 4.171875 -2.03125 L 1.921875 -2.03125 L 1.921875 -1.109375 Z M 4.578125 -1.109375 "/></g></g></g><g fill="#000000" fill-opacity="1"><g transform="translate(19.398555, 17.611454)"><g><path d="M 5.328125 -5.0625 L 5.328125 0 L 4.140625 0 L 1.90625 -2.703125 L 1.90625 0 L 0.5 0 L 0.5 -5.0625 L 1.6875 -5.0625 L 3.921875 -2.359375 L 3.921875 -5.0625 Z M 5.328125 -5.0625 "/></g></g></g><g fill="#000000" fill-opacity="1"><g transform="translate(25.854298, 17.611454)"><g><path d="M 5.328125 -5.0625 L 5.328125 0 L 3.890625 0 L 3.890625 -1.96875 L 1.9375 -1.96875 L 1.9375 0 L 0.5 0 L 0.5 -5.0625 L 1.9375 -5.0625 L 1.9375 -3.15625 L 3.890625 -3.15625 L 3.890625 -5.0625 Z M 5.328125 -5.0625 "/></g></g></g><g fill="#000000" fill-opacity="1"><g transform="translate(32.310042, 17.611454)"><g><path d="M 0.5 -5.0625 L 1.9375 -5.0625 L 1.9375 0 L 0.5 0 Z M 0.5 -5.0625 "/></g></g></g><g fill="#000000" fill-opacity="1"><g transform="translate(35.389775, 17.611454)"><g><path d="M 2.71875 -1.34375 L 1.9375 -1.34375 L 1.9375 0 L 0.5 0 L 0.5 -5.0625 L 2.828125 -5.0625 C 3.285156 -5.0625 3.679688 -4.984375 4.015625 -4.828125 C 4.347656 -4.679688 4.609375 -4.46875 4.796875 -4.1875 C 4.984375 -3.90625 5.078125 -3.570312 5.078125 -3.1875 C 5.078125 -2.820312 4.988281 -2.503906 4.8125 -2.234375 C 4.644531 -1.960938 4.398438 -1.75 4.078125 -1.59375 L 5.171875 0 L 3.640625 0 Z M 3.625 -3.1875 C 3.625 -3.425781 3.546875 -3.609375 3.390625 -3.734375 C 3.242188 -3.867188 3.023438 -3.9375 2.734375 -3.9375 L 1.9375 -3.9375 L 1.9375 -2.453125 L 2.734375 -2.453125 C 3.023438 -2.453125 3.242188 -2.515625 3.390625 -2.640625 C 3.546875 -2.765625 3.625 -2.945312 3.625 -3.1875 Z M 3.625 -3.1875 "/></g></g></g><g fill="#000000" fill-opacity="1"><g transform="translate(41.368394, 17.611454)"><g><path d="M 4.578125 -1.109375 L 4.578125 0 L 0.5 0 L 0.5 -5.0625 L 4.484375 -5.0625 L 4.484375 -3.953125 L 1.921875 -3.953125 L 1.921875 -3.109375 L 4.171875 -3.109375 L 4.171875 -2.03125 L 1.921875 -2.03125 L 1.921875 -1.109375 Z M 4.578125 -1.109375 "/></g></g></g><g fill="#000000" fill-opacity="1"><g transform="translate(46.855432, 17.611454)"><g><path d="M 5.328125 -5.0625 L 5.328125 0 L 3.890625 0 L 3.890625 -1.96875 L 1.9375 -1.96875 L 1.9375 0 L 0.5 0 L 0.5 -5.0625 L 1.9375 -5.0625 L 1.9375 -3.15625 L 3.890625 -3.15625 L 3.890625 -5.0625 Z M 5.328125 -5.0625 "/></g></g></g><g fill="#000000" fill-opacity="1"><g transform="translate(53.311175, 17.611454)"><g><path d="M 2.84375 0.09375 C 2.09375 0.09375 1.507812 -0.109375 1.09375 -0.515625 C 0.675781 -0.921875 0.46875 -1.5 0.46875 -2.25 L 0.46875 -5.0625 L 1.890625 -5.0625 L 1.890625 -2.296875 C 1.890625 -1.484375 2.210938 -1.078125 2.859375 -1.078125 C 3.492188 -1.078125 3.8125 -1.484375 3.8125 -2.296875 L 3.8125 -5.0625 L 5.21875 -5.0625 L 5.21875 -2.25 C 5.21875 -1.5 5.007812 -0.921875 4.59375 -0.515625 C 4.175781 -0.109375 3.59375 0.09375 2.84375 0.09375 Z M 2.84375 0.09375 "/></g></g></g><g fill="#000000" fill-opacity="1"><g transform="translate(59.622336, 17.611454)"><g><path d="M 4.40625 -2.640625 C 4.6875 -2.535156 4.910156 -2.375 5.078125 -2.15625 C 5.242188 -1.945312 5.328125 -1.691406 5.328125 -1.390625 C 5.328125 -0.941406 5.144531 -0.597656 4.78125 -0.359375 C 4.425781 -0.117188 3.910156 0 3.234375 0 L 0.5 0 L 0.5 -5.0625 L 3.09375 -5.0625 C 3.738281 -5.0625 4.226562 -4.941406 4.5625 -4.703125 C 4.90625 -4.460938 5.078125 -4.140625 5.078125 -3.734375 C 5.078125 -3.492188 5.015625 -3.28125 4.890625 -3.09375 C 4.773438 -2.90625 4.613281 -2.753906 4.40625 -2.640625 Z M 1.921875 -4.03125 L 1.921875 -3.046875 L 2.90625 -3.046875 C 3.382812 -3.046875 3.625 -3.210938 3.625 -3.546875 C 3.625 -3.867188 3.382812 -4.03125 2.90625 -4.03125 Z M 3.125 -1.03125 C 3.625 -1.03125 3.875 -1.203125 3.875 -1.546875 C 3.875 -1.890625 3.625 -2.0625 3.125 -2.0625 L 1.921875 -2.0625 L 1.921875 -1.03125 Z M 3.125 -1.03125 "/></g></g></g></svg>